<svg id="Capa_1" enable-background="new 0 0 510 510" height="512" viewBox="0 0 510 510" width="512" xmlns="http://www.w3.org/2000/svg" xmlns:xlink="http://www.w3.org/1999/xlink"><linearGradient id="SVGID_1_" gradientUnits="userSpaceOnUse" x1="255" x2="255" y1="325.913" y2="440.687"><stop offset="0" stop-color="#c1e9af"/><stop offset="1" stop-color="#4fc123"/></linearGradient><linearGradient id="SVGID_2_" gradientUnits="userSpaceOnUse" x1="446.608" x2="374.83" y1="376.638" y2="376.638"><stop offset="0" stop-color="#4fc123" stop-opacity="0"/><stop offset=".1348" stop-color="#4bab2f" stop-opacity=".135"/><stop offset=".385" stop-color="#468741" stop-opacity=".385"/><stop offset=".6201" stop-color="#426e4e" stop-opacity=".62"/><stop offset=".8318" stop-color="#3f5e56" stop-opacity=".832"/><stop offset="1" stop-color="#3e5959"/></linearGradient><linearGradient id="lg1"><stop offset="0" stop-color="#fe99a0"/><stop offset="1" stop-color="#fd4755"/></linearGradient><linearGradient id="SVGID_3_" gradientUnits="userSpaceOnUse" x1="220.564" x2="192.903" xlink:href="#lg1" y1="277.347" y2="321.605"/><linearGradient id="SVGID_4_" gradientUnits="userSpaceOnUse" x1="292.34" x2="315.978" xlink:href="#lg1" y1="282.028" y2="319.748"/><linearGradient id="lg2"><stop offset="0" stop-color="#537983"/><stop offset="1" stop-color="#3e5959"/></linearGradient><linearGradient id="SVGID_5_" gradientUnits="userSpaceOnUse" x1="119.712" x2="255.544" xlink:href="#lg2" y1="104.829" y2="240.661"/><linearGradient id="lg3"><stop offset="0" stop-color="#ffdcbd"/><stop offset="1" stop-color="#ffa9b1"/></linearGradient><linearGradient id="SVGID_6_" gradientUnits="userSpaceOnUse" x1="131.427" x2="161.356" xlink:href="#lg3" y1="153.653" y2="183.583"/><linearGradient id="SVGID_7_" gradientUnits="userSpaceOnUse" x1="340.712" x2="382.594" xlink:href="#lg3" y1="147.968" y2="189.85"/><linearGradient id="SVGID_8_" gradientUnits="userSpaceOnUse" x1="147.363" x2="362.638" xlink:href="#lg3" y1="171.581" y2="171.581"/><linearGradient id="SVGID_9_" gradientUnits="userSpaceOnUse" x1="255" x2="255" y1="175.867" y2="227.867"><stop offset="0" stop-color="#ffa9b1" stop-opacity="0"/><stop offset=".9972" stop-color="#ffa78f"/></linearGradient><linearGradient id="SVGID_10_" gradientUnits="userSpaceOnUse" x1="175.589" x2="311.421" xlink:href="#lg2" y1="36.286" y2="172.118"/><linearGradient id="SVGID_11_" gradientUnits="userSpaceOnUse" x1="256.069" x2="256.069" y1="533.569" y2="472.235"><stop offset="0" stop-color="#883f2e"/><stop offset="1" stop-color="#6d3326"/></linearGradient><linearGradient id="SVGID_12_" gradientUnits="userSpaceOnUse" x1="255" x2="255" y1="454.209" y2="479.166"><stop offset="0" stop-color="#ca6e59"/><stop offset="1" stop-color="#883f2e"/></linearGradient><linearGradient id="lg4"><stop offset="0" stop-color="#eef5f6"/><stop offset="1" stop-color="#cbe5e8"/></linearGradient><linearGradient id="SVGID_13_" gradientUnits="userSpaceOnUse" x1="222.445" x2="298.315" xlink:href="#lg4" y1="275.652" y2="444.41"/><linearGradient id="SVGID_14_" gradientUnits="userSpaceOnUse" x1="285.36" x2="241.298" y1="379.926" y2="335.864"><stop offset="0" stop-color="#eef5f6" stop-opacity="0"/><stop offset="1" stop-color="#fff"/></linearGradient><linearGradient id="SVGID_15_" gradientUnits="userSpaceOnUse" x1="255" x2="255" y1="412.979" y2="449.372"><stop offset="0" stop-color="#cbe5e8" stop-opacity="0"/><stop offset="1" stop-color="#7ca1b1"/></linearGradient><linearGradient id="SVGID_16_" gradientUnits="userSpaceOnUse" x1="191.643" x2="222.928" xlink:href="#lg2" y1="173.248" y2="173.248"/><linearGradient id="SVGID_17_" gradientUnits="userSpaceOnUse" x1="287.072" x2="318.357" xlink:href="#lg2" y1="173.248" y2="173.248"/><linearGradient id="SVGID_18_" gradientUnits="userSpaceOnUse" x1="423.935" x2="468.602" y1="55.141" y2="136.475"><stop offset="0" stop-color="#60b7ff"/><stop offset=".1835" stop-color="#56aff6"/><stop offset=".5011" stop-color="#3a97e0"/><stop offset=".9121" stop-color="#0c71bc"/><stop offset="1" stop-color="#0268b4"/></linearGradient><linearGradient id="lg5"><stop offset="0" stop-color="#0268b4" stop-opacity="0"/><stop offset="1" stop-color="#0268b4"/></linearGradient><linearGradient id="SVGID_19_" gradientUnits="userSpaceOnUse" x1="501.451" x2="446.58" xlink:href="#lg5" y1="62.423" y2="7.551"/><linearGradient id="SVGID_20_" gradientUnits="userSpaceOnUse" x1="485.117" x2="393.342" xlink:href="#lg5" y1="105.978" y2="34.412"/><linearGradient id="SVGID_21_" gradientUnits="userSpaceOnUse" x1="414.297" x2="450.746" y1="37.986" y2="74.435"><stop offset="0" stop-color="#ffe177"/><stop offset="1" stop-color="#fe9738"/></linearGradient><linearGradient id="lg6"><stop offset="0" stop-color="#fe9738" stop-opacity="0"/><stop offset="1" stop-color="#f46700"/></linearGradient><linearGradient id="SVGID_22_" gradientUnits="userSpaceOnUse" x1="428.04" x2="440.024" xlink:href="#lg6" y1="58.092" y2="97.416"/><linearGradient id="SVGID_23_" gradientUnits="userSpaceOnUse" x1="431.232" x2="431.232" xlink:href="#lg6" y1="73.794" y2="86.715"/><linearGradient id="SVGID_24_" gradientUnits="userSpaceOnUse" x1="424.866" x2="441.102" xlink:href="#lg2" y1="85.153" y2="107.27"/><linearGradient id="SVGID_25_" gradientUnits="userSpaceOnUse" x1="431.233" x2="431.233" xlink:href="#lg4" y1="86.493" y2="92.926"/><linearGradient id="SVGID_26_" gradientUnits="userSpaceOnUse" x1="431.233" x2="431.233" xlink:href="#lg4" y1="96.337" y2="102.769"/><linearGradient id="SVGID_27_" gradientTransform="matrix(-1 0 0 1 3031.539 0)" gradientUnits="userSpaceOnUse" x1="2970.382" x2="2970.382" xlink:href="#lg1" y1="162.838" y2="262.404"/><g><g><g><path d="m454.462 448.282h-398.924v-15.825c0-84.43 68.444-152.874 152.873-152.874h93.176c84.43 0 152.873 68.444 152.873 152.874v15.825z" fill="url(#SVGID_1_)"/><path d="m386 304.993v143.289h68.462v-15.825c0-53.224-27.205-100.087-68.462-127.464z" fill="url(#SVGID_2_)"/><g><path d="m179.057 271.208s-22.129 11.064-15.088 20.117c5.179 6.659 31.581 32.363 45.183 45.494 4.51 4.353 11.665 4.279 16.097-.153l29.75-29.75z" fill="url(#SVGID_3_)"/><path d="m330.943 271.208s22.129 11.064 15.088 20.117c-5.179 6.659-31.581 32.363-45.183 45.494-4.51 4.353-11.665 4.279-16.097-.153l-29.751-29.749z" fill="url(#SVGID_4_)"/></g><g><g><g><path d="m382.592 388.477h-255.023v-243.742c0-70.423 57.089-127.511 127.511-127.511 70.423 0 127.511 57.089 127.511 127.511v243.742z" fill="url(#SVGID_5_)"/><g><path d="m120.477 169.741c0-17.598 12.215-32.342 28.63-36.217 4.388-1.036 8.582 2.357 8.582 6.865v58.703c0 4.508-4.194 7.901-8.582 6.865-16.415-3.874-28.63-18.618-28.63-36.216z" fill="url(#SVGID_6_)"/><path d="m389.523 169.741c0-17.598-12.215-32.342-28.63-36.217-4.388-1.036-8.582 2.357-8.582 6.865v58.703c0 4.508 4.194 7.901 8.582 6.865 16.415-3.874 28.63-18.618 28.63-36.216z" fill="url(#SVGID_7_)"/></g><path d="m255 306.818c-59.447 0-107.638-48.191-107.638-107.637v-55.199c0-59.447 48.191-107.637 107.637-107.637 59.447 0 107.637 48.191 107.637 107.637v55.199c.002 59.446-48.189 107.637-107.636 107.637z" fill="url(#SVGID_8_)"/><path d="m260.946 226.253h-11.893c-9.911 0-17.415-8.956-15.679-18.714l6.817-38.324h29.616l6.817 38.324c1.737 9.757-5.767 18.714-15.678 18.714z" fill="url(#SVGID_9_)"/></g></g></g><path d="m372.904 138.142c-4.419.396-9.801.77-15.626 1.123-23.856 1.444-44.012-17.495-44.012-41.396-26.6 29.386-64.796 45.507-104.411 44.212-26.237-.858-52.05-2.202-71.611-3.971 1.848-52.231 37.699-95.794 86.074-109.305 10.102-2.836 20.746-4.334 31.772-4.334s21.67 1.498 31.772 4.334c19.79 5.513 37.508 16.093 51.625 30.211 20.396 20.426 33.334 48.246 34.417 79.126z" fill="url(#SVGID_10_)"/><g><path d="m461.522 508.266h-410.906c-5.806 0-10.513-4.707-10.513-10.513v-25.481h431.932v25.481c0 5.807-4.707 10.513-10.513 10.513z" fill="url(#SVGID_11_)"/><path d="m486.154 478.751h-462.308c-2.972 0-5.381-2.409-5.381-5.381v-19.708c0-2.972 2.409-5.381 5.381-5.381h462.308c2.972 0 5.381 2.409 5.381 5.381v19.708c0 2.972-2.409 5.381-5.381 5.381z" fill="url(#SVGID_12_)"/></g><g><path d="m393.527 250.85h-277.054c-6.069 0-10.988 4.92-10.988 10.988v171.626c0 8.184 6.634 14.818 14.818 14.818h269.394c8.184 0 14.818-6.634 14.818-14.818v-171.625c0-6.069-4.919-10.989-10.988-10.989z" fill="url(#SVGID_13_)"/><circle cx="255" cy="349.566" fill="url(#SVGID_14_)" r="26.436"/><path d="m105.485 386.2v47.264c0 8.184 6.634 14.818 14.818 14.818h269.394c8.184 0 14.818-6.634 14.818-14.818v-47.264z" fill="url(#SVGID_15_)"/></g><g><path d="m207.285 192.902c-8.639 0-15.643-7.003-15.643-15.643v-8.022c0-8.639 7.003-15.643 15.643-15.643 8.639 0 15.643 7.003 15.643 15.643v8.022c0 8.639-7.004 15.643-15.643 15.643z" fill="url(#SVGID_16_)"/><path d="m302.715 192.902c-8.639 0-15.643-7.003-15.643-15.643v-8.022c0-8.639 7.003-15.643 15.643-15.643 8.639 0 15.643 7.003 15.643 15.643v8.022c-.001 8.639-7.004 15.643-15.643 15.643z" fill="url(#SVGID_17_)"/></g></g></g><g><path d="m415.158 1.734h32.15c34.624 0 62.692 28.068 62.692 62.692 0 34.624-28.068 62.692-62.692 62.692h-32.15c-3.646 0-7.213-.329-10.689-.926l-18.932 9.404c-4.707 2.338-10.124-1.497-9.483-6.714l1.736-14.118c-15.367-11.426-25.325-29.718-25.325-50.339 0-34.623 28.068-62.691 62.693-62.691z" fill="url(#SVGID_18_)"/><path d="m509.995 64.427c0 4.55-.48 8.98-1.4 13.25l-51.71-51.71c-1.37-1.37-.369-3.61 1.001-4.98l2.129-2.13c1.37-1.37 3.61-2.37 4.98-1.001l44.98 44.98c.01.531.02 1.061.02 1.591z" fill="url(#SVGID_19_)"/><path d="m458.055 28.337c-6.48-7.6-16.12-11.419-26.89-11.399-8.52.01-15.349 3.09-21.449 8.19l-6.26-6.27c-1.38-1.37-3.61-2.37-4.99-1.001-.68.69-1.03 1.59-1.03 2.49 0 .91.35 1.81 1.03 2.5l6.32 6.31c-4.89 6.09-7.81 13.82-7.76 22.19 0 .28.02 1.551.03 1.831l-2.501-3.171c-.58-1.13-1.77-.91-3.13-.91h-4.42c-1.94 0-2.519.579-2.519 2.529 0 .81-.731 1.55-.271 2.15l27.49 27.54c.63 1.05 1.04 2.23 1.19 3.46l-7.32-7.5c-1.37-1.37-3.61-.369-4.98 1.001l-2.129 2.13c-1.37 1.37-2.371 3.61-1.001 4.98l41.24 41.73h8.6c17.32 0 32.99-7.02 44.33-18.36 8.14-8.14 14.05-18.5 16.74-30.09z" fill="url(#SVGID_20_)"/><g><g><g><path d="m466.439 51.139c0-19.467-15.799-35.244-35.275-35.207-19.427.037-35.251 15.989-35.138 35.416.065 11.2 5.36 21.16 13.566 27.563 2.141 1.67 3.394 4.232 3.394 6.947 0 5.852 4.744 10.596 10.596 10.596h15.301c5.852 0 10.596-4.744 10.596-10.596v-.001c0-2.713 1.25-5.274 3.389-6.942 8.26-6.442 13.571-16.489 13.571-27.776z" fill="url(#SVGID_21_)"/><path d="m446.778 68.567c0-8.595-6.976-15.561-15.575-15.545-8.578.016-15.565 7.06-15.515 15.638.029 4.945 2.367 9.343 5.99 12.17.945.737 1.499 1.868 1.499 3.067 0 2.584 2.095 4.678 4.678 4.678h6.756c2.584 0 4.678-2.095 4.678-4.678 0-1.198.552-2.329 1.496-3.065 3.647-2.845 5.993-7.281 5.993-12.265z" fill="url(#SVGID_22_)"/><path d="m398.546 64.244c2.335 5.819 6.178 10.869 11.047 14.668 2.141 1.67 3.394 4.232 3.394 6.947 0 5.852 4.744 10.596 10.596 10.596h15.301c5.852 0 10.596-4.744 10.596-10.596v-.001c0-2.713 1.25-5.274 3.389-6.942 4.87-3.799 8.714-8.851 11.05-14.672z" fill="url(#SVGID_23_)"/><g><path d="m431.233 111.432c-10.077 0-18.246-8.169-18.246-18.246v-4.701h36.492v4.701c0 10.077-8.169 18.246-18.246 18.246z" fill="url(#SVGID_24_)"/><path d="m411.672 86.77v4.049c0 .926.959 1.715 2.272 1.875 5.092.619 10.995.973 17.289.973s12.196-.354 17.289-.973c1.312-.16 2.272-.949 2.272-1.875v-4.049c0-1.172-1.508-2.066-3.171-1.877-4.883.554-10.461.869-16.389.869s-11.506-.315-16.389-.869c-1.664-.188-3.173.705-3.173 1.877z" fill="url(#SVGID_25_)"/><path d="m411.672 96.614v4.049c0 .926.959 1.715 2.272 1.875 5.092.619 10.995.973 17.289.973s12.196-.354 17.289-.973c1.312-.16 2.272-.949 2.272-1.875v-4.049c0-1.172-1.508-2.066-3.171-1.877-4.883.554-10.461.869-16.389.869s-11.506-.315-16.389-.869c-1.664-.189-3.173.705-3.173 1.877z" fill="url(#SVGID_26_)"/></g></g></g><g fill="#ffc344"><g><path d="m471.039 55.149h4.419c1.947 0 3.525-1.578 3.525-3.525 0-1.947-1.578-3.525-3.525-3.525h-4.419c-1.947 0-3.525 1.578-3.525 3.525 0 1.947 1.578 3.525 3.525 3.525z"/><path d="m387.007 55.149h4.419c1.947 0 3.525-1.578 3.525-3.525 0-1.947-1.578-3.525-3.525-3.525h-4.419c-1.947 0-3.525 1.578-3.525 3.525.001 1.947 1.579 3.525 3.525 3.525z"/></g><g><path d="m456.887 82.264 3.125 3.125c1.376 1.376 3.608 1.376 4.985 0 1.376-1.376 1.376-3.608 0-4.985l-3.125-3.125c-1.376-1.376-3.608-1.376-4.985 0-1.376 1.377-1.376 3.609 0 4.985z"/><path d="m397.468 22.845 3.125 3.125c1.376 1.376 3.608 1.376 4.985 0 1.376-1.376 1.376-3.608 0-4.985l-3.125-3.125c-1.376-1.376-3.608-1.376-4.985 0-1.376 1.377-1.376 3.608 0 4.985z"/></g><g><path d="m405.578 82.264-3.125 3.125c-1.376 1.376-3.608 1.376-4.985 0-1.376-1.376-1.376-3.608 0-4.985l3.125-3.125c1.376-1.376 3.608-1.376 4.985 0 1.376 1.377 1.376 3.609 0 4.985z"/><path d="m464.997 22.845-3.125 3.125c-1.376 1.376-3.608 1.376-4.985 0-1.376-1.376-1.376-3.608 0-4.985l3.125-3.125c1.376-1.376 3.608-1.376 4.985 0 1.376 1.377 1.376 3.608 0 4.985z"/></g></g></g></g><g><path d="m73.638 142.195h-24.962c-26.883 0-48.676 21.793-48.676 48.676 0 26.883 21.793 48.676 48.676 48.676h24.962c2.831 0 5.6-.255 8.299-.719l14.699 7.302c3.654 1.815 7.861-1.163 7.363-5.213l-1.348-10.961c11.931-8.871 19.663-23.074 19.663-39.084 0-26.884-21.793-48.677-48.676-48.677z" fill="url(#SVGID_27_)"/><g fill="#3e5959"><path d="m91.752 184.856h-61.19c-3.521 0-6.375-2.854-6.375-6.375v-8.693c0-3.521 2.854-6.375 6.375-6.375h61.19c3.521 0 6.375 2.854 6.375 6.375v8.693c0 3.521-2.854 6.375-6.375 6.375z"/><path d="m74.614 220.789h-44.052c-3.521 0-6.375-2.854-6.375-6.375v-8.693c0-3.521 2.854-6.375 6.375-6.375h44.051c3.521 0 6.375 2.854 6.375 6.375v8.693c.001 3.521-2.853 6.375-6.374 6.375z"/></g></g></g></svg>